<svg aria-hidden="true" style="position: absolute; width: 0; height: 0; overflow: hidden;" version="1.1" xmlns="http://www.w3.org/2000/svg" xmlns:xlink="http://www.w3.org/1999/xlink">
<defs>
<symbol id="icon-checkmark" viewBox="0 0 20 20">
<path d="M0 11l2-2 5 5 11-11 2 2-13 13z"></path>
</symbol>
<symbol id="icon-checkmark-outline" viewBox="0 0 20 20">
<path d="M2.93 17.070c-1.884-1.821-3.053-4.37-3.053-7.193 0-5.523 4.477-10 10-10 2.823 0 5.372 1.169 7.19 3.050l0.003 0.003c1.737 1.796 2.807 4.247 2.807 6.947 0 5.523-4.477 10-10 10-2.7 0-5.151-1.070-6.95-2.81l0.003 0.003zM15.66 15.66c1.449-1.449 2.344-3.45 2.344-5.66 0-4.421-3.584-8.004-8.004-8.004-2.21 0-4.211 0.896-5.66 2.344v0c-1.449 1.449-2.344 3.45-2.344 5.66 0 4.421 3.584 8.004 8.004 8.004 2.21 0 4.211-0.896 5.66-2.344v0zM6.7 9.29l2.3 2.31 4.3-4.3 1.4 1.42-5.7 5.68-3.7-3.7 1.4-1.42z"></path>
</symbol>
<symbol id="icon-edit-crop" viewBox="0 0 20 20">
<path d="M14 16h-8c-1.105 0-2-0.895-2-2v0-8h-4v-2h4v-4h2v14h14v2h-4v4h-2v-4zM14 13v-7h-7v-2h7c1.105 0 2 0.895 2 2v0 7h-2z"></path>
</symbol>
<symbol id="icon-edit-cut" viewBox="0 0 20 20">
<path d="M9.77 11.5l5.34 3.91c0.44 0.33 1.24 0.59 1.79 0.59h3.1l-13.11-9.62c0.072-0.265 0.114-0.57 0.114-0.885 0-1.933-1.567-3.5-3.5-3.5s-3.5 1.567-3.5 3.5c0 1.933 1.567 3.5 3.5 3.5 0.747 0 1.439-0.234 2.008-0.633l-0.011 0.007 2.23 1.63-2.23 1.63c-0.56-0.396-1.256-0.634-2.009-0.634-1.933 0-3.5 1.567-3.5 3.5s1.567 3.5 3.5 3.5c1.933 0 3.5-1.567 3.5-3.5 0-0.311-0.041-0.613-0.117-0.901l0.006 0.024 2.9-2.12zM3.5 7c-0.828 0-1.5-0.672-1.5-1.5s0.672-1.5 1.5-1.5v0c0.828 0 1.5 0.672 1.5 1.5s-0.672 1.5-1.5 1.5v0zM3.5 16c-0.828 0-1.5-0.672-1.5-1.5s0.672-1.5 1.5-1.5v0c0.828 0 1.5 0.672 1.5 1.5s-0.672 1.5-1.5 1.5v0zM15.1 4.59c0.507-0.343 1.126-0.559 1.792-0.59l0.008-0h3.1l-7.5 5.5-2.050-1.5 4.65-3.41z"></path>
</symbol>
<symbol id="icon-save-disk" viewBox="0 0 20 20">
<path d="M0 2c0-1.1 0.9-2 2-2h14l4 4v14c0 1.105-0.895 2-2 2v0h-16c-1.105 0-2-0.895-2-2v0-16zM5 2v6h10v-6h-10zM11 3h3v4h-3v-4z"></path>
</symbol>
<symbol id="icon-tuning" viewBox="0 0 20 20">
<path d="M17 16v4h-2v-4h-2v-3h6v3h-2zM1 9h6v3h-6v-3zM7 5h6v3h-6v-3zM3 0h2v8h-2v-8zM15 0h2v12h-2v-12zM9 0h2v4h-2v-4zM3 12h2v8h-2v-8zM9 8h2v12h-2v-12z"></path>
</symbol>
<symbol id="icon-resize-100" viewBox="0 0 20 20">
<path d="M4.1 14.1l-3.1 2.9 2 2 2.9-3.1 2.1 2.1v-6h-6l2.1 2.1zM19 3l-2-2-2.9 3.1-2.1-2.1v6h6l-2.1-2.1 3.1-2.9z"></path>
</symbol>
<symbol id="icon-resize-full-screen" viewBox="0 0 20 20">
<path d="M6.987 10.987l-2.931 3.031-2.056-2.429v6.411h6.387l-2.43-2.081 3.030-2.932-2-2zM11.613 2l2.43 2.081-3.030 2.932 2 2 2.931-3.031 2.056 2.429v-6.411h-6.387z"></path>
</symbol>
<symbol id="icon-save" viewBox="0 0 20 20">
<path d="M15.173 2h-11.173c-1.101 0-2 0.9-2 2v12c0 1.1 0.899 2 2 2h12c1.101 0 2-0.9 2-2v-10.873l-2.827-3.127zM14 8c0 0.549-0.45 1-1 1h-6c-0.55 0-1-0.451-1-1v-5h8v5zM13 4h-2v4h2v-4z"></path>
</symbol>
<symbol id="icon-camera1" viewBox="0 0 20 20">
<path d="M10 8c-1.657 0-3 1.344-3 3s1.343 3 3 3c1.656 0 3-1.344 3-3s-1.344-3-3-3zM18 5h-2.4c-0.33 0-0.686-0.256-0.789-0.57l-0.621-1.861c-0.105-0.313-0.459-0.569-0.79-0.569h-6.8c-0.33 0-0.686 0.256-0.789 0.568l-0.622 1.862c-0.104 0.314-0.459 0.57-0.789 0.57h-2.4c-1.1 0-2 0.9-2 2v9c0 1.1 0.9 2 2 2h16c1.1 0 2-0.9 2-2v-9c0-1.1-0.9-2-2-2zM10 16c-2.762 0-5-2.238-5-5s2.238-5 5-5c2.761 0 5 2.238 5 5s-2.239 5-5 5zM17.5 8.2c-0.387 0-0.7-0.314-0.7-0.701 0-0.385 0.313-0.7 0.7-0.7s0.7 0.314 0.7 0.7c0 0.387-0.313 0.701-0.7 0.701z"></path>
</symbol>
<symbol id="icon-image-inverted" viewBox="0 0 20 20">
<path d="M18 3h-16c-0.553 0-1 0.447-1 1v12c0 0.552 0.447 1 1 1h16c0.553 0 1-0.448 1-1v-12c0-0.552-0.447-1-1-1zM13.25 6.5c0.69 0 1.25 0.56 1.25 1.25s-0.56 1.25-1.25 1.25-1.25-0.56-1.25-1.25 0.56-1.25 1.25-1.25zM4 14l3.314-7.619 3.769 6.102 3.231-1.605 1.686 3.122h-12z"></path>
</symbol>
<symbol id="icon-image" viewBox="0 0 20 20">
<path d="M19 2h-18c-0.553 0-1 0.447-1 1v14c0 0.552 0.447 1 1 1h18c0.553 0 1-0.448 1-1v-14c0-0.552-0.447-1-1-1zM18 16h-16v-12h16v12zM14.315 10.877l-3.231 1.605-3.77-6.101-3.314 7.619h12l-1.685-3.123zM13.25 9c0.69 0 1.25-0.56 1.25-1.25s-0.56-1.25-1.25-1.25-1.25 0.56-1.25 1.25 0.56 1.25 1.25 1.25z"></path>
</symbol>
<symbol id="icon-images" viewBox="0 0 20 20">
<path d="M17.125 6.17l-2.046-5.635c-0.151-0.416-0.595-0.637-0.989-0.492l-13.598 4.963c-0.394 0.144-0.593 0.597-0.441 1.013l2.156 5.941v-3.183c0-1.438 1.148-2.607 2.56-2.607h3.593l4.285-3.008 2.479 3.008h2.001zM19.238 8h-14.471c-0.42 0-0.762 0.334-0.762 0.777v9.42c0.001 0.444 0.343 0.803 0.762 0.803h14.471c0.42 0 0.762-0.359 0.762-0.803v-9.42c0-0.443-0.342-0.777-0.762-0.777zM18 17h-12v-2l1.984-4.018 2.768 3.436 2.598-2.662 3.338-1.205 1.312 3.449v3z"></path>
</symbol>
<symbol id="icon-scissors" viewBox="0 0 20 20">
<path d="M8.38 5.59c0-2.038-1.652-3.69-3.69-3.69s-3.69 1.652-3.69 3.69c0 2.038 1.652 3.69 3.69 3.69 0.96 0 1.826-0.376 2.483-0.976l1.827 1.687 0.012 0.009-0.004 0.003-1.836 1.693c-0.656-0.6-1.522-0.976-2.482-0.976-2.038 0-3.69 1.652-3.69 3.69s1.652 3.69 3.69 3.69 3.69-1.652 3.69-3.69c0-0.297-0.044-0.582-0.111-0.858l2.844-1.991 4.127 3.065c2.212 1.549 3.76-0.663 3.76-0.663l-10.731-7.515c0.066-0.276 0.111-0.561 0.111-0.858zM4.69 7.39c-0.994 0-1.8-0.806-1.8-1.8s0.806-1.8 1.8-1.8 1.8 0.806 1.8 1.8-0.806 1.8-1.8 1.8zM4.69 16.21c-0.994 0-1.8-0.806-1.8-1.8s0.806-1.8 1.8-1.8 1.8 0.806 1.8 1.8-0.806 1.8-1.8 1.8zM19 6.038c0 0-1.548-2.212-3.76-0.663l-3.205 2.235 2.354 1.648 4.611-3.22z"></path>
</symbol>
<symbol id="icon-tools" viewBox="0 0 20 20">
<path d="M3.135 6.89c0.933-0.725 1.707-0.225 2.74 0.971 0.116 0.135 0.272-0.023 0.361-0.1 0.088-0.078 1.451-1.305 1.518-1.361 0.066-0.059 0.146-0.169 0.041-0.292-0.107-0.123-0.494-0.625-0.743-0.951-1.808-2.365 4.946-3.969 3.909-3.994-0.528-0.014-2.646-0.039-2.963-0.004-1.283 0.135-2.894 1.334-3.705 1.893-1.061 0.726-1.457 1.152-1.522 1.211-0.3 0.262-0.048 0.867-0.592 1.344-0.575 0.503-0.934 0.122-1.267 0.414-0.165 0.146-0.627 0.492-0.759 0.607-0.133 0.117-0.157 0.314-0.021 0.471 0 0 1.264 1.396 1.37 1.52 0.105 0.122 0.391 0.228 0.567 0.071 0.177-0.156 0.632-0.553 0.708-0.623 0.078-0.066-0.050-0.861 0.358-1.177zM8.843 7.407c-0.12-0.139-0.269-0.143-0.397-0.029l-1.434 1.252c-0.113 0.1-0.129 0.283-0.027 0.4l8.294 9.439c0.194 0.223 0.53 0.246 0.751 0.053l0.97-0.813c0.222-0.195 0.245-0.533 0.052-0.758l-8.209-9.544zM19.902 3.39c-0.074-0.494-0.33-0.391-0.463-0.182-0.133 0.211-0.721 1.102-0.963 1.506-0.24 0.4-0.832 1.191-1.934 0.41-1.148-0.811-0.749-1.377-0.549-1.758 0.201-0.383 0.818-1.457 0.907-1.59 0.089-0.135-0.015-0.527-0.371-0.363s-2.523 1.025-2.823 2.26c-0.307 1.256 0.257 2.379-0.85 3.494l-1.343 1.4 1.349 1.566 1.654-1.57c0.394-0.396 1.236-0.781 1.998-0.607 1.633 0.369 2.524-0.244 3.061-1.258 0.482-0.906 0.402-2.814 0.327-3.308zM2.739 17.053c-0.208 0.209-0.208 0.549 0 0.758l0.951 0.93c0.208 0.209 0.538 0.121 0.746-0.088l4.907-4.824-1.503-1.714-5.101 4.938z"></path>
</symbol>
<symbol id="icon-control_camera" viewBox="0 0 24 24">
<path d="M9 12q0-1.219 0.891-2.109t2.109-0.891 2.109 0.891 0.891 2.109-0.891 2.109-2.109 0.891-2.109-0.891-0.891-2.109zM5.531 8.438l1.781 1.781-1.781 1.781 1.781 1.781-1.781 1.781-3.516-3.563zM8.438 18.469l1.781-1.781 1.781 1.781 1.781-1.781 1.781 1.781-3.563 3.516zM18.469 15.563l-1.781-1.781 1.781-1.781-1.781-1.781 1.781-1.781 3.516 3.563zM15.563 5.531l-1.781 1.781-1.781-1.781-1.781 1.781-1.781-1.781 3.563-3.516z"></path>
</symbol>
<symbol id="icon-clear" viewBox="0 0 24 24">
<path d="M18.984 6.422l-5.578 5.578 5.578 5.578-1.406 1.406-5.578-5.578-5.578 5.578-1.406-1.406 5.578-5.578-5.578-5.578 1.406-1.406 5.578 5.578 5.578-5.578z"></path>
</symbol>
<symbol id="icon-content_cut" viewBox="0 0 24 24">
<path d="M18.984 3h3v0.984l-6.984 7.031-2.016-2.016zM12 12.516q0.516 0 0.516-0.516t-0.516-0.516-0.516 0.516 0.516 0.516zM6 20.016q0.797 0 1.406-0.586t0.609-1.43-0.609-1.43-1.406-0.586-1.406 0.586-0.609 1.43 0.609 1.43 1.406 0.586zM6 8.016q0.797 0 1.406-0.586t0.609-1.43-0.609-1.43-1.406-0.586-1.406 0.586-0.609 1.43 0.609 1.43 1.406 0.586zM9.656 7.641l12.328 12.375v0.984h-3l-6.984-6.984-2.344 2.344q0.328 0.703 0.328 1.641 0 1.641-1.172 2.813t-2.813 1.172-2.813-1.172-1.172-2.813 1.172-2.813 2.813-1.172q0.938 0 1.641 0.328l2.344-2.344-2.344-2.344q-0.703 0.328-1.641 0.328-1.641 0-2.813-1.172t-1.172-2.813 1.172-2.813 2.813-1.172 2.813 1.172 1.172 2.813q0 0.938-0.328 1.641z"></path>
</symbol>
<symbol id="icon-create" viewBox="0 0 24 24">
<path d="M20.719 7.031l-1.828 1.828-3.75-3.75 1.828-1.828q0.281-0.281 0.703-0.281t0.703 0.281l2.344 2.344q0.281 0.281 0.281 0.703t-0.281 0.703zM3 17.25l11.063-11.063 3.75 3.75-11.063 11.063h-3.75v-3.75z"></path>
</symbol>
<symbol id="icon-redo" viewBox="0 0 24 24">
<path d="M18.422 10.594l3.563-3.609v9h-9l3.656-3.609q-2.25-1.875-5.156-1.875-2.391 0-4.617 1.594t-2.977 3.891l-2.344-0.75q1.031-3.188 3.773-5.203t6.164-2.016q3.984 0 6.938 2.578z"></path>
</symbol>
<symbol id="icon-undo" viewBox="0 0 24 24">
<path d="M12.516 8.016q3.422 0 6.141 2.016t3.797 5.203l-2.344 0.75q-0.797-2.438-2.883-3.961t-4.711-1.523q-2.906 0-5.156 1.875l3.656 3.609h-9v-9l3.563 3.609q2.953-2.578 6.938-2.578z"></path>
</symbol>
<symbol id="icon-insert_photo" viewBox="0 0 24 24">
<path d="M8.484 13.5l-3.469 4.5h13.969l-4.5-6-3.469 4.5zM21 18.984q0 0.797-0.609 1.406t-1.406 0.609h-13.969q-0.797 0-1.406-0.609t-0.609-1.406v-13.969q0-0.797 0.609-1.406t1.406-0.609h13.969q0.797 0 1.406 0.609t0.609 1.406v13.969z"></path>
</symbol>
<symbol id="icon-cloud_done" viewBox="0 0 24 24">
<path d="M9.984 17.016l6.609-6.609-1.406-1.406-5.203 5.156-2.063-2.063-1.406 1.406zM19.359 10.031q1.922 0.141 3.281 1.57t1.359 3.398q0 2.063-1.477 3.539t-3.539 1.477h-12.984q-2.484 0-4.242-1.758t-1.758-4.242q0-2.203 1.57-3.961t3.773-1.992q0.984-1.828 2.766-2.953t3.891-1.125q2.531 0 4.711 1.781t2.648 4.266z"></path>
</symbol>
<symbol id="icon-cloud_download" viewBox="0 0 24 24">
<path d="M17.016 12.984h-3v-3.984h-4.031v3.984h-3l5.016 5.016zM19.359 10.031q1.922 0.141 3.281 1.57t1.359 3.398q0 2.063-1.477 3.539t-3.539 1.477h-12.984q-2.484 0-4.242-1.758t-1.758-4.242q0-2.203 1.57-3.961t3.773-1.992q0.984-1.828 2.766-2.953t3.891-1.125q2.531 0 4.711 1.781t2.648 4.266z"></path>
</symbol>
<symbol id="icon-cloud_upload" viewBox="0 0 24 24">
<path d="M14.016 12.984h3l-5.016-4.969-5.016 4.969h3v4.031h4.031v-4.031zM19.359 10.031q1.922 0.141 3.281 1.57t1.359 3.398q0 2.063-1.477 3.539t-3.539 1.477h-12.984q-2.484 0-4.242-1.758t-1.758-4.242q0-2.203 1.57-3.961t3.773-1.992q0.984-1.828 2.766-2.953t3.891-1.125q2.531 0 4.711 1.781t2.648 4.266z"></path>
</symbol>
<symbol id="icon-file_download" viewBox="0 0 24 24">
<path d="M5.016 18h13.969v2.016h-13.969v-2.016zM18.984 9l-6.984 6.984-6.984-6.984h3.984v-6h6v6h3.984z"></path>
</symbol>
<symbol id="icon-file_upload" viewBox="0 0 24 24">
<path d="M5.016 18h13.969v2.016h-13.969v-2.016zM9 15.984v-6h-3.984l6.984-6.984 6.984 6.984h-3.984v6h-6z"></path>
</symbol>
<symbol id="icon-camera_alt" viewBox="0 0 24 24">
<path d="M12 17.016q2.063 0 3.539-1.477t1.477-3.539-1.477-3.539-3.539-1.477-3.539 1.477-1.477 3.539 1.477 3.539 3.539 1.477zM9 2.016h6l1.828 1.969h3.188q0.797 0 1.383 0.609t0.586 1.406v12q0 0.797-0.586 1.406t-1.383 0.609h-16.031q-0.797 0-1.383-0.609t-0.586-1.406v-12q0-0.797 0.586-1.406t1.383-0.609h3.188zM8.813 12q0-1.313 0.938-2.25t2.25-0.938 2.25 0.938 0.938 2.25-0.938 2.25-2.25 0.938-2.25-0.938-0.938-2.25z"></path>
</symbol>
<symbol id="icon-crop" viewBox="0 0 24 24">
<path d="M6.984 17.016h16.031v1.969h-4.031v4.031h-1.969v-4.031h-10.031q-0.797 0-1.383-0.586t-0.586-1.383v-10.031h-4.031v-1.969h4.031v-4.031h1.969v16.031zM17.016 15v-8.016h-8.016v-1.969h8.016q0.797 0 1.383 0.586t0.586 1.383v8.016h-1.969z"></path>
</symbol>
<symbol id="icon-crop_free" viewBox="0 0 24 24">
<path d="M18.984 3q0.797 0 1.406 0.609t0.609 1.406v3.984h-2.016v-3.984h-3.984v-2.016h3.984zM18.984 18.984v-3.984h2.016v3.984q0 0.797-0.609 1.406t-1.406 0.609h-3.984v-2.016h3.984zM5.016 15v3.984h3.984v2.016h-3.984q-0.797 0-1.406-0.609t-0.609-1.406v-3.984h2.016zM3 5.016q0-0.797 0.609-1.406t1.406-0.609h3.984v2.016h-3.984v3.984h-2.016v-3.984z"></path>
</symbol>
<symbol id="icon-rotate_left" viewBox="0 0 24 24">
<path d="M12.984 4.078q2.953 0.375 4.992 2.625t2.039 5.297-2.039 5.297-4.992 2.625v-2.016q2.156-0.375 3.586-2.039t1.43-3.867-1.43-3.867-3.586-2.039v3.891l-4.547-4.453 4.547-4.547v3.094zM7.078 18.328l1.453-1.453q1.078 0.797 2.484 1.031v2.016q-2.25-0.281-3.938-1.594zM6.094 12.984q0.234 1.359 0.984 2.484l-1.406 1.406q-1.313-1.734-1.594-3.891h2.016zM7.125 8.531q-0.844 1.219-1.031 2.484h-2.016q0.281-2.109 1.641-3.891z"></path>
</symbol>
<symbol id="icon-rotate_right" viewBox="0 0 24 24">
<path d="M16.875 15.469q0.797-1.078 1.031-2.484h2.016q-0.281 2.156-1.594 3.891zM12.984 17.906q1.406-0.234 2.484-1.031l1.453 1.453q-1.688 1.313-3.938 1.594v-2.016zM19.922 11.016h-2.016q-0.234-1.406-1.031-2.484l1.453-1.406q1.359 1.688 1.594 3.891zM15.563 5.531l-4.547 4.453v-3.891q-2.156 0.375-3.586 2.039t-1.43 3.867 1.43 3.867 3.586 2.039v2.016q-2.953-0.375-4.992-2.625t-2.039-5.297 2.039-5.297 4.992-2.625v-3.094z"></path>
</symbol>
<symbol id="icon-tune" viewBox="0 0 24 24">
<path d="M15 9v-6h2.016v2.016h3.984v1.969h-3.984v2.016h-2.016zM21 12.984h-9.984v-1.969h9.984v1.969zM6.984 9h2.016v6h-2.016v-2.016h-3.984v-1.969h3.984v-2.016zM12.984 21h-1.969v-6h1.969v2.016h8.016v1.969h-8.016v2.016zM3 5.016h9.984v1.969h-9.984v-1.969zM3 17.016h6v1.969h-6v-1.969z"></path>
</symbol>
<symbol id="icon-crop_rotate" viewBox="0 0 24 24">
<path d="M8.016 15.984h12v2.016h-2.016v2.016h-2.016v-2.016h-7.969q-0.844 0-1.43-0.586t-0.586-1.43v-7.969h-2.016v-2.016h2.016v-2.016h2.016v12zM15.984 14.016v-6h-6v-2.016h6q0.844 0 1.43 0.586t0.586 1.43v6h-2.016zM12.047 0q4.688 0 8.133 3.188t3.82 7.828h-1.5q-0.281-2.813-1.875-5.063t-4.078-3.422l-1.359 1.313-3.797-3.797q0.141 0 0.328-0.023t0.328-0.023zM7.453 21.469l1.359-1.313 3.797 3.797q-0.141 0-0.328 0.023t-0.328 0.023q-4.688 0-8.133-3.188t-3.82-7.828h1.5q0.281 2.813 1.875 5.063t4.078 3.422z"></path>
</symbol>
<symbol id="icon-linked_camera" viewBox="0 0 24 24">
<path d="M15.984 6q0.844 0 1.43 0.586t0.586 1.43h1.313q0-1.359-0.984-2.344t-2.344-0.984v1.313zM12 18.984q2.063 0 3.539-1.453t1.477-3.516-1.477-3.539-3.539-1.477-3.539 1.477-1.477 3.539 1.477 3.516 3.539 1.453zM17.016 9h4.969v11.016q0 0.797-0.586 1.383t-1.383 0.586h-16.031q-0.797 0-1.383-0.586t-0.586-1.383v-12q0-0.797 0.586-1.406t1.383-0.609h3.188l1.828-2.016h6v3q0.844 0 1.43 0.586t0.586 1.43zM15.984 3.328v-1.313q2.484 0 4.242 1.758t1.758 4.242h-1.313q0-1.922-1.383-3.305t-3.305-1.383zM8.813 14.016q0-1.359 0.938-2.297t2.25-0.938 2.25 0.938 0.938 2.297-0.938 2.273-2.25 0.914-2.25-0.914-0.938-2.273z"></path>
</symbol>
<symbol id="icon-add_a_photo" viewBox="0 0 24 24">
<path d="M9.797 14.016q0-1.359 0.938-2.297t2.25-0.938q1.359 0 2.297 0.938t0.938 2.297q0 1.313-0.938 2.25t-2.297 0.938-2.273-0.914-0.914-2.273zM12.984 18.984q2.063 0 3.539-1.453t1.477-3.516-1.477-3.539-3.539-1.477-3.516 1.477-1.453 3.539 1.453 3.516 3.516 1.453zM6 9.984v-3h3v-3h6.984l1.828 2.016h3.188q0.797 0 1.406 0.609t0.609 1.406v12q0 0.797-0.609 1.383t-1.406 0.586h-15.984q-0.797 0-1.406-0.586t-0.609-1.383v-10.031h3zM3 3.984v-3h2.016v3h3v2.016h-3v3h-2.016v-3h-3v-2.016h3z"></path>
</symbol>
<symbol id="icon-add_photo_alternate" viewBox="0 0 24 24">
<path d="M5.016 18.984h12l-4.031-4.969-3 3.984-1.969-3zM15.984 11.016h3v7.969q0 0.797-0.586 1.406t-1.383 0.609h-12q-0.797 0-1.406-0.609t-0.609-1.406v-12q0-0.797 0.609-1.383t1.406-0.586h7.969v3h3v3zM18.984 6.984v3h-1.969v-3h-3v-1.969h3v-3h1.969v3h3v1.969h-3z"></path>
</symbol>
<symbol id="icon-arrow_back" viewBox="0 0 24 24">
<path d="M20.016 11.016v1.969h-12.188l5.578 5.625-1.406 1.406-8.016-8.016 8.016-8.016 1.406 1.406-5.578 5.625h12.188z"></path>
</symbol>
<symbol id="icon-arrow_forward" viewBox="0 0 24 24">
<path d="M12 3.984l8.016 8.016-8.016 8.016-1.406-1.406 5.578-5.625h-12.188v-1.969h12.188l-5.578-5.625z"></path>
</symbol>
<symbol id="icon-check" viewBox="0 0 24 24">
<path d="M9 16.172l10.594-10.594 1.406 1.406-12 12-5.578-5.578 1.406-1.406z"></path>
</symbol>
<symbol id="icon-fullscreen_exit" viewBox="0 0 24 24">
<path d="M15.984 8.016h3v1.969h-4.969v-4.969h1.969v3zM14.016 18.984v-4.969h4.969v1.969h-3v3h-1.969zM8.016 8.016v-3h1.969v4.969h-4.969v-1.969h3zM5.016 15.984v-1.969h4.969v4.969h-1.969v-3h-3z"></path>
</symbol>
<symbol id="icon-arrow_upward" viewBox="0 0 24 24">
<path d="M3.984 12l8.016-8.016 8.016 8.016-1.453 1.406-5.578-5.578v12.188h-1.969v-12.188l-5.625 5.578z"></path>
</symbol>
<symbol id="icon-arrow_downward" viewBox="0 0 24 24">
<path d="M20.016 12l-8.016 8.016-8.016-8.016 1.453-1.406 5.578 5.578v-12.188h1.969v12.188l5.625-5.578z"></path>
</symbol>
<symbol id="icon-check_circle" viewBox="0 0 24 24">
<path d="M9.984 17.016l9-9-1.406-1.453-7.594 7.594-3.563-3.563-1.406 1.406zM12 2.016q4.125 0 7.055 2.93t2.93 7.055-2.93 7.055-7.055 2.93-7.055-2.93-2.93-7.055 2.93-7.055 7.055-2.93z"></path>
</symbol>
<symbol id="icon-done" viewBox="0 0 24 24">
<path d="M9 16.219l10.594-10.641 1.406 1.406-12 12-5.578-5.578 1.359-1.406z"></path>
</symbol>
<symbol id="icon-done_all" viewBox="0 0 24 24">
<path d="M0.422 13.406l1.406-1.406 5.578 5.578-1.406 1.406zM22.219 5.578l1.453 1.406-12 12-5.625-5.578 1.453-1.406 4.172 4.172zM18 6.984l-6.328 6.375-1.406-1.406 6.328-6.375z"></path>
</symbol>
<symbol id="icon-history" viewBox="0 0 24 24">
<path d="M12 8.016h1.5v4.219l3.516 2.109-0.75 1.219-4.266-2.578v-4.969zM12.984 3q3.703 0 6.352 2.625t2.648 6.375-2.648 6.375-6.352 2.625q-1.547 0-3.398-0.773t-2.93-1.852l1.406-1.453q2.063 2.063 4.922 2.063 2.906 0 4.969-2.039t2.063-4.945-2.063-4.945-4.969-2.039-4.945 2.039-2.039 4.945h3l-4.031 4.031-0.094-0.141-3.891-3.891h3q0-3.75 2.648-6.375t6.352-2.625z"></path>
</symbol>
<symbol id="icon-settings" viewBox="0 0 24 24">
<path d="M12 15.516q1.453 0 2.484-1.031t1.031-2.484-1.031-2.484-2.484-1.031-2.484 1.031-1.031 2.484 1.031 2.484 2.484 1.031zM19.453 12.984l2.109 1.641q0.328 0.234 0.094 0.656l-2.016 3.469q-0.188 0.328-0.609 0.188l-2.484-0.984q-0.984 0.703-1.688 0.984l-0.375 2.625q-0.094 0.422-0.469 0.422h-4.031q-0.375 0-0.469-0.422l-0.375-2.625q-0.891-0.375-1.688-0.984l-2.484 0.984q-0.422 0.141-0.609-0.188l-2.016-3.469q-0.234-0.422 0.094-0.656l2.109-1.641q-0.047-0.328-0.047-0.984t0.047-0.984l-2.109-1.641q-0.328-0.234-0.094-0.656l2.016-3.469q0.188-0.328 0.609-0.188l2.484 0.984q0.984-0.703 1.688-0.984l0.375-2.625q0.094-0.422 0.469-0.422h4.031q0.375 0 0.469 0.422l0.375 2.625q0.891 0.375 1.688 0.984l2.484-0.984q0.422-0.141 0.609 0.188l2.016 3.469q0.234 0.422-0.094 0.656l-2.109 1.641q0.047 0.328 0.047 0.984t-0.047 0.984z"></path>
</symbol>
<symbol id="icon-check_circle_outline" viewBox="0 0 24 24">
<path d="M12 20.016q3.281 0 5.648-2.367t2.367-5.648-2.367-5.648-5.648-2.367-5.648 2.367-2.367 5.648 2.367 5.648 5.648 2.367zM12 2.016q4.125 0 7.055 2.93t2.93 7.055-2.93 7.055-7.055 2.93-7.055-2.93-2.93-7.055 2.93-7.055 7.055-2.93zM16.594 7.594l1.406 1.406-8.016 8.016-4.969-5.016 1.406-1.406 3.563 3.563z"></path>
</symbol>
<symbol id="icon-drive_folder_upload" viewBox="0 0 24 24">
<path d="M8.016 13.031l3.984-4.031 3.984 4.031-1.406 1.406-1.594-1.594v4.172h-1.969v-4.172l-1.594 1.594zM20.016 18v-9.984h-16.031v9.984h16.031zM20.016 6q0.797 0 1.383 0.609t0.586 1.406v9.984q0 0.797-0.586 1.406t-1.383 0.609h-16.031q-0.797 0-1.383-0.609t-0.586-1.406v-12q0-0.797 0.586-1.406t1.383-0.609h6l2.016 2.016h8.016z"></path>
</symbol>
<symbol id="icon-file_download_done" viewBox="0 0 24 24">
<path d="M9.609 15.281l-4.594-4.594 1.969-1.875 2.625 2.578 7.406-7.406 1.969 2.016zM5.016 18h13.969v2.016h-13.969v-2.016z"></path>
</symbol>
<symbol id="icon-upload_file" viewBox="0 0 24 24">
<path d="M8.016 15l3.984-3.984 3.984 3.984-1.406 1.453-1.594-1.594v4.125h-1.969v-4.125l-1.594 1.547zM18 20.016v-11.016h-5.016v-5.016h-6.984v16.031h12zM14.016 2.016l6 6v12q0 0.797-0.609 1.383t-1.406 0.586h-12q-0.797 0-1.406-0.586t-0.609-1.383l0.047-16.031q0-0.797 0.586-1.383t1.383-0.586h8.016z"></path>
</symbol>
</defs>
</svg>
